# xmcd CD database file
#
# Track frame offsets:
#	150
#	27446
#	52323
#	77922
#	100034
#	115839
#	136156
#	166240
#	191930
#	228858
#	268456
#	291114
#	309141
#	334941
#
# Disc length: 4762 seconds
#
# Revision: 7
# Processed by: cddbd v1.5.2PL0 Copyright (c) Steve Scherf et al.
# Submitted via: CDex 1.50
#
DISCID=c912980e
DTITLE=Wolfgang Hohlbein - Anubis CD02
DYEAR=2006
DGENRE=Hörbuch
TTITLE0=Anubis 15
TTITLE1=Anubis 16
TTITLE2=Anubis 17
TTITLE3=Anubis 18
TTITLE4=Anubis 19
TTITLE5=Anubis 20
TTITLE6=Anubis 21
TTITLE7=Anubis 22
TTITLE8=Anubis 23
TTITLE9=Anubis 24
TTITLE10=Anubis 25
TTITLE11=Anubis 26
TTITLE12=Anubis 27
TTITLE13=Anubis 28
EXTD=YEAR: 2006
EXTT0=
EXTT1=
EXTT2=
EXTT3=
EXTT4=
EXTT5=
EXTT6=
EXTT7=
EXTT8=
EXTT9=
EXTT10=
EXTT11=
EXTT12=
EXTT13=
PLAYORDER=
